<?xml version="1.0" standalone="no"?>
<!DOCTYPE svg PUBLIC "-//W3C//DTD SVG 20010904//EN"
 "http://www.w3.org/TR/2001/REC-SVG-20010904/DTD/svg10.dtd">
<svg version="1.0" xmlns="http://www.w3.org/2000/svg"
 width="944.000000pt" height="692.000000pt" viewBox="0 0 944.000000 692.000000"
 preserveAspectRatio="xMidYMid meet">

<g transform="translate(0.000000,692.000000) scale(0.100000,-0.100000)"
fill="#000000" stroke="none">
<path d="M5163 5599 c-57 -22 -131 -87 -159 -140 -30 -56 -26 -160 10 -234 63
-128 209 -236 331 -243 80 -5 119 20 160 103 28 56 30 67 30 175 0 96 -4 124
-23 171 -63 156 -204 224 -349 168z m157 -19 c34 0 106 -59 133 -109 15 -27
27 -51 27 -55 0 -3 -16 4 -35 15 -49 29 -138 35 -211 15 -71 -21 -126 -55
-176 -110 l-38 -41 0 58 c0 65 22 117 67 158 53 50 134 81 187 73 16 -2 36 -4
46 -4z m104 -174 c42 -17 75 -71 83 -133 6 -56 -18 -165 -45 -203 -29 -40 -80
-62 -129 -56 -91 12 -216 102 -270 194 l-26 43 29 42 c32 46 108 102 158 116
48 14 163 13 200 -3z"/>
<path d="M5320 5110 c0 -27 3 -30 30 -30 27 0 30 3 30 30 0 27 -3 30 -30 30
-27 0 -30 -3 -30 -30z m40 0 c0 -5 -4 -10 -10 -10 -5 0 -10 5 -10 10 0 6 5 10
10 10 6 0 10 -4 10 -10z"/>
<path d="M4060 5425 c-56 -18 -100 -62 -138 -140 -34 -69 -84 -221 -103 -313
-11 -54 -11 -64 2 -78 14 -14 23 -11 92 24 l76 40 45 -43 c68 -66 128 -70 204
-16 100 73 165 255 132 370 -22 77 -77 127 -170 155 -64 19 -81 19 -140 1z
m195 -60 c58 -36 65 -50 28 -58 -36 -7 -82 -52 -177 -171 -90 -113 -200 -206
-245 -206 -19 0 -7 71 35 198 71 219 123 276 245 270 53 -3 76 -10 114 -33z
m81 -106 c4 -7 6 -41 6 -76 -2 -99 -64 -220 -136 -264 -50 -31 -99 -25 -146
17 -22 20 -40 40 -40 45 0 6 16 25 35 45 20 19 67 75 106 124 39 50 80 97 92
105 25 18 73 20 83 4z"/>
<path d="M4147 5004 c-4 -4 -7 -20 -7 -36 0 -25 4 -28 31 -28 28 0 30 2 27 33
-2 23 -8 33 -23 35 -12 2 -24 0 -28 -4z m33 -34 c0 -5 -4 -10 -10 -10 -5 0
-10 5 -10 10 0 6 5 10 10 10 6 0 10 -4 10 -10z"/>
<path d="M4615 5206 c-74 -34 -124 -115 -125 -201 0 -76 17 -121 63 -169 79
-83 175 -83 254 0 126 130 54 368 -115 381 -27 2 -60 -3 -77 -11z m145 -48
c62 -43 95 -147 70 -222 -23 -72 -88 -126 -150 -126 -90 0 -169 103 -157 206
11 98 73 164 157 164 32 0 57 -7 80 -22z"/>
<path d="M4610 4916 c0 -21 61 -50 91 -43 31 8 66 33 57 42 -3 4 -20 -1 -38
-10 -33 -17 -63 -13 -92 13 -16 14 -18 13 -18 -2z"/>
<path d="M5115 4940 c-134 -29 -269 -117 -371 -241 l-56 -69 -49 43 c-192 165
-418 209 -607 116 -256 -125 -327 -491 -159 -824 129 -258 402 -509 734 -677
97 -49 104 -51 140 -40 83 25 395 217 538 330 504 401 638 878 331 1187 -78
79 -147 122 -246 155 -73 23 -195 33 -255 20z m220 -45 c208 -54 380 -244 405
-445 20 -164 -21 -311 -137 -490 -66 -102 -279 -317 -398 -402 -179 -127 -442
-278 -484 -278 -50 0 -288 137 -430 248 -199 155 -340 332 -418 522 -40 98
-56 176 -56 280 -1 229 105 395 285 452 67 20 189 24 253 8 95 -25 202 -85
272 -152 l42 -41 -23 -36 c-64 -104 -117 -270 -136 -425 -28 -230 47 -376 195
-376 132 0 205 104 205 295 0 150 -51 312 -149 471 l-49 79 21 30 c71 103 234
227 340 261 58 18 191 17 262 -1z m-561 -462 c50 -100 73 -161 90 -246 37
-180 8 -313 -84 -375 -69 -47 -168 -13 -212 71 -63 123 -13 456 97 642 l27 47
24 -36 c13 -19 39 -66 58 -103z"/>
<path d="M5530 4673 c0 -5 13 -34 30 -64 46 -85 63 -167 58 -278 -5 -112 -36
-196 -94 -252 -35 -34 -44 -59 -20 -59 22 0 86 78 113 138 40 91 50 192 29
298 -19 99 -71 217 -98 222 -10 2 -18 -1 -18 -5z"/>
<path d="M4001 4565 c-48 -75 -74 -192 -69 -305 6 -124 48 -240 82 -227 14 5
13 12 -8 54 -64 128 -58 293 16 443 34 70 35 73 19 78 -6 2 -24 -17 -40 -43z"/>
<path d="M4390 3789 c-40 -12 -70 -36 -70 -55 0 -22 50 -53 98 -60 54 -8 149
9 170 30 21 20 8 60 -24 75 -37 17 -133 22 -174 10z m157 -40 c27 -10 28 -11
8 -25 -15 -12 -41 -15 -102 -12 -89 3 -109 12 -79 34 24 17 132 19 173 3z"/>
<path d="M4882 3789 c-27 -7 -48 -19 -59 -36 -16 -25 -16 -26 10 -49 67 -57
248 -38 255 28 3 21 -3 30 -27 42 -39 20 -125 27 -179 15z m155 -40 c27 -10
27 -11 9 -25 -27 -19 -155 -19 -182 0 -18 14 -18 15 6 25 34 13 132 14 167 0z"/>
<path d="M3335 2824 c-33 -8 -98 -33 -145 -56 -69 -33 -101 -57 -176 -132 -81
-81 -98 -104 -142 -196 -72 -150 -86 -215 -86 -390 0 -175 22 -275 91 -419
124 -259 419 -406 724 -361 152 22 311 102 414 207 41 42 130 162 124 167 -6
5 -288 146 -293 146 -2 0 -18 -22 -36 -50 -69 -108 -166 -163 -290 -163 -173
0 -294 107 -347 305 -25 96 -23 274 5 363 55 180 181 287 337 288 119 1 222
-59 294 -172 l32 -49 148 71 149 72 -36 55 c-55 86 -100 136 -166 187 -78 59
-186 109 -276 128 -89 19 -245 18 -325 -1z"/>
<path d="M4693 2688 c-22 -62 -147 -398 -277 -747 -130 -349 -236 -636 -236
-637 0 -2 89 -4 198 -4 l199 0 37 120 38 120 276 -2 276 -3 36 -117 35 -118
198 0 c108 0 197 3 197 7 0 4 -91 252 -201 552 -111 300 -234 634 -274 741
l-72 195 -194 3 -195 2 -41 -112z m332 -578 l91 -295 -184 -3 c-102 -1 -186
-1 -188 0 -2 3 108 392 157 553 12 39 24 63 27 55 3 -8 47 -148 97 -310z"/>
<path d="M5820 2050 l0 -750 480 0 480 0 0 160 0 160 -290 0 -290 0 0 590 0
590 -190 0 -190 0 0 -750z"/>
</g>
</svg>
